<svg xmlns="http://www.w3.org/2000/svg" xmlns:xlink="http://www.w3.org/1999/xlink" width="500" zoomAndPan="magnify" viewBox="0 0 375 374.999991" height="500" preserveAspectRatio="xMidYMid meet" version="1.0"><defs><clipPath id="03559463bf"><path d="M 45.292969 37.5 L 337.792969 37.5 L 337.792969 330 L 45.292969 330 Z M 45.292969 37.5 " clip-rule="nonzero"/></clipPath></defs><g clip-path="url(#03559463bf)"><path fill="#efe8dd" d="M 127.519531 271.25 C 128.023438 276.988281 129.28125 282.511719 131.195312 287.714844 C 124.167969 289.175781 116.890625 289.941406 109.429688 289.941406 C 105.933594 289.941406 102.507812 289.773438 99.144531 289.453125 C 99.390625 286.367188 99.765625 283.300781 100.257812 280.265625 C 109.703125 278.355469 118.855469 275.320312 127.519531 271.25 M 87.28125 243.800781 C 92.488281 245.714844 98.011719 246.976562 103.757812 247.476562 C 99.683594 256.140625 96.648438 265.289062 94.734375 274.742188 C 91.695312 275.238281 88.625 275.605469 85.539062 275.855469 C 85.21875 272.492188 85.054688 269.058594 85.054688 265.5625 C 85.054688 258.105469 85.820312 250.824219 87.28125 243.800781 Z M 94.730469 92.460938 C 96.640625 101.90625 99.671875 111.0625 103.742188 119.726562 C 98.003906 120.230469 92.480469 121.492188 87.28125 123.402344 C 85.820312 116.375 85.054688 109.097656 85.054688 101.640625 C 85.054688 98.144531 85.21875 94.710938 85.539062 91.347656 C 88.625 91.59375 91.695312 91.964844 94.730469 92.460938 Z M 255.273438 271.238281 C 263.9375 275.304688 273.085938 278.34375 282.527344 280.261719 C 283.023438 283.300781 283.394531 286.367188 283.640625 289.453125 C 280.277344 289.773438 276.84375 289.941406 273.355469 289.941406 C 265.894531 289.941406 258.617188 289.171875 251.585938 287.714844 C 253.507812 282.507812 254.765625 276.976562 255.273438 271.238281 Z M 255.273438 95.964844 C 254.765625 90.222656 253.507812 84.695312 251.589844 79.488281 C 258.617188 78.03125 265.894531 77.261719 273.355469 77.261719 C 276.851562 77.261719 280.28125 77.425781 283.648438 77.746094 C 283.398438 80.839844 283.03125 83.902344 282.535156 86.941406 C 273.085938 88.859375 263.9375 91.894531 255.273438 95.964844 Z M 279.027344 247.480469 C 284.769531 246.976562 290.296875 245.714844 295.503906 243.804688 C 296.964844 250.832031 297.730469 258.109375 297.730469 265.566406 C 297.730469 269.0625 297.566406 272.496094 297.246094 275.855469 C 294.152344 275.605469 291.089844 275.234375 288.050781 274.742188 C 286.136719 265.289062 283.097656 256.140625 279.027344 247.480469 Z M 295.503906 123.402344 C 290.304688 121.488281 284.78125 120.226562 279.042969 119.726562 C 283.113281 111.0625 286.144531 101.910156 288.058594 92.464844 C 291.09375 91.96875 294.160156 91.601562 297.246094 91.351562 C 297.566406 94.714844 297.730469 98.148438 297.730469 101.640625 C 297.730469 109.097656 296.964844 116.375 295.503906 123.402344 Z M 179.515625 95.242188 C 168.007812 86.101562 154.675781 79.164062 140.160156 75.058594 C 142.945312 69.695312 146.554688 64.828125 150.8125 60.613281 C 161.226562 50.304688 175.5625 43.941406 191.394531 43.941406 C 207.230469 43.941406 221.570312 50.3125 231.984375 60.617188 C 236.238281 64.828125 239.839844 69.695312 242.632812 75.058594 C 228.113281 79.164062 214.78125 86.101562 203.273438 95.242188 C 201.09375 96.972656 198.984375 98.78125 196.941406 100.664062 C 198.371094 102.261719 199.757812 103.902344 201.09375 105.582031 C 203.089844 103.734375 205.148438 101.964844 207.28125 100.273438 C 218.363281 91.46875 231.253906 84.832031 245.304688 81 C 247.472656 86.664062 248.78125 92.757812 249.054688 99.117188 C 237.089844 105.613281 226.207031 114.160156 216.945312 124.492188 C 215.121094 126.527344 213.375 128.609375 211.71875 130.734375 C 211.183594 131.425781 210.652344 132.109375 210.144531 132.796875 C 207.203125 126.972656 203.769531 121.4375 199.898438 116.25 C 198.550781 114.441406 197.148438 112.675781 195.699219 110.949219 C 194.3125 109.308594 192.878906 107.699219 191.398438 106.136719 C 187.699219 102.234375 183.734375 98.589844 179.515625 95.242188 Z M 127.519531 95.949219 C 118.855469 91.882812 109.699219 88.847656 100.25 86.9375 C 99.757812 83.902344 99.386719 80.835938 99.136719 77.746094 C 102.503906 77.425781 105.933594 77.261719 109.429688 77.261719 C 116.890625 77.261719 124.167969 78.03125 131.195312 79.488281 C 129.277344 84.695312 128.019531 90.214844 127.519531 95.949219 Z M 268.851562 183.597656 C 272.761719 179.910156 276.402344 175.9375 279.746094 171.722656 C 288.886719 160.210938 295.828125 146.878906 299.929688 132.363281 C 305.292969 135.152344 310.160156 138.757812 314.375 143.015625 C 324.683594 153.429688 331.046875 167.769531 331.046875 183.597656 C 331.046875 199.433594 324.675781 213.773438 314.371094 224.1875 C 310.160156 228.441406 305.289062 232.042969 299.929688 234.835938 C 295.828125 220.316406 288.886719 206.984375 279.746094 195.476562 C 278.015625 193.296875 276.207031 191.183594 274.328125 189.140625 C 272.726562 190.570312 271.089844 191.957031 269.410156 193.292969 C 271.253906 195.285156 273.027344 197.347656 274.714844 199.476562 C 283.519531 210.5625 290.15625 223.453125 293.988281 237.503906 C 288.324219 239.671875 282.230469 240.980469 275.871094 241.253906 C 269.378906 229.285156 260.828125 218.40625 250.496094 209.144531 C 248.460938 207.320312 246.378906 205.574219 244.253906 203.917969 C 243.570312 203.378906 242.878906 202.851562 242.195312 202.339844 C 248.019531 199.398438 253.550781 195.96875 258.738281 192.097656 C 260.546875 190.75 262.3125 189.351562 264.039062 187.898438 C 265.6875 186.515625 267.292969 185.082031 268.851562 183.597656 Z M 218.839844 156.152344 C 217.402344 150.40625 215.523438 144.832031 213.246094 139.472656 C 214.40625 137.808594 215.582031 136.207031 216.773438 134.6875 C 218.359375 132.660156 220.007812 130.683594 221.722656 128.769531 C 230.902344 118.527344 241.765625 110.144531 253.722656 103.894531 L 253.84375 103.832031 C 254.976562 103.242188 256.113281 102.675781 257.265625 102.121094 C 264.882812 98.46875 272.917969 95.675781 281.207031 93.792969 C 279.324219 102.097656 276.523438 110.132812 272.871094 117.761719 C 272.328125 118.898438 271.757812 120.03125 271.175781 121.15625 L 271.117188 121.269531 C 264.871094 133.242188 256.472656 144.117188 246.222656 153.304688 C 244.3125 155.015625 242.34375 156.664062 240.320312 158.242188 C 238.757812 159.46875 237.167969 160.644531 235.5625 161.769531 C 230.183594 159.484375 224.601562 157.597656 218.839844 156.152344 Z M 133.742188 268.105469 C 145.714844 261.605469 156.613281 253.050781 165.878906 242.710938 C 167.703125 240.679688 169.4375 238.601562 171.097656 236.484375 C 171.625 235.808594 172.144531 235.121094 172.660156 234.429688 C 175.597656 240.246094 179.03125 245.769531 182.890625 250.953125 C 184.238281 252.761719 185.644531 254.527344 187.09375 256.25 C 188.476562 257.898438 189.914062 259.503906 191.390625 261.066406 C 195.085938 264.972656 199.054688 268.617188 203.269531 271.960938 C 214.777344 281.097656 228.101562 288.039062 242.621094 292.144531 C 239.835938 297.5 236.234375 302.371094 231.972656 306.582031 C 221.558594 316.894531 207.222656 323.261719 191.386719 323.261719 C 175.554688 323.261719 161.222656 316.894531 150.800781 306.589844 C 146.542969 302.371094 142.941406 297.507812 140.148438 292.144531 C 154.667969 288.039062 168 281.101562 179.507812 271.960938 C 181.6875 270.230469 183.796875 268.421875 185.84375 266.539062 C 184.414062 264.941406 183.027344 263.300781 181.691406 261.621094 C 179.695312 263.46875 177.636719 265.238281 175.507812 266.929688 C 164.421875 275.734375 151.53125 282.371094 137.480469 286.203125 C 135.316406 280.542969 134.015625 274.457031 133.742188 268.105469 Z M 142.476562 208.984375 C 144.003906 207.792969 145.601562 206.617188 147.261719 205.453125 C 152.621094 207.734375 158.199219 209.617188 163.945312 211.050781 C 165.382812 216.8125 167.269531 222.398438 169.558594 227.769531 C 168.4375 229.375 167.261719 230.964844 166.035156 232.53125 C 164.453125 234.550781 162.804688 236.523438 161.09375 238.433594 C 151.90625 248.6875 141.03125 257.078125 129.058594 263.324219 L 128.949219 263.382812 C 127.824219 263.96875 126.695312 264.53125 125.554688 265.082031 C 117.925781 268.734375 109.886719 271.53125 101.585938 273.414062 C 103.464844 265.121094 106.261719 257.09375 109.914062 249.472656 C 110.460938 248.320312 111.035156 247.183594 111.625 246.050781 L 111.6875 245.929688 C 117.933594 233.972656 126.320312 223.105469 136.5625 213.933594 C 138.476562 212.214844 140.449219 210.5625 142.476562 208.984375 Z M 299.230469 293.367188 L 299.277344 293.347656 L 299.300781 293.339844 L 299.351562 293.320312 L 299.371094 293.308594 L 299.429688 293.285156 L 299.433594 293.285156 C 299.792969 293.128906 300.109375 292.90625 300.382812 292.644531 L 300.425781 292.601562 C 300.761719 292.261719 301.023438 291.839844 301.183594 291.363281 L 301.183594 291.359375 L 301.203125 291.300781 L 301.277344 291.03125 C 302.101562 287.453125 302.757812 283.804688 303.234375 280.105469 C 303.292969 279.890625 303.332031 279.664062 303.34375 279.429688 C 303.347656 279.359375 303.347656 279.292969 303.347656 279.21875 L 303.441406 278.414062 C 303.921875 274.164062 304.167969 269.875 304.167969 265.558594 C 304.167969 257.199219 303.261719 249.054688 301.535156 241.214844 C 308.023438 238.035156 313.898438 233.792969 318.925781 228.714844 C 330.40625 217.117188 337.488281 201.179688 337.488281 183.59375 C 337.488281 166.011719 330.40625 150.074219 318.929688 138.484375 C 313.902344 133.402344 308.023438 129.152344 301.535156 125.972656 C 303.261719 118.132812 304.167969 109.988281 304.167969 101.628906 C 304.167969 97.316406 303.921875 93.023438 303.441406 88.78125 L 303.347656 87.976562 C 303.347656 87.910156 303.347656 87.835938 303.34375 87.769531 C 303.332031 87.535156 303.292969 87.3125 303.234375 87.09375 C 302.757812 83.402344 302.101562 79.761719 301.28125 76.1875 C 301.253906 76.0625 301.222656 75.9375 301.179688 75.816406 L 301.160156 75.765625 L 301.15625 75.753906 L 301.136719 75.707031 L 301.125 75.679688 L 301.105469 75.628906 L 301.074219 75.550781 L 301.074219 75.546875 C 300.910156 75.183594 300.691406 74.871094 300.429688 74.601562 L 300.386719 74.558594 C 300.046875 74.222656 299.628906 73.960938 299.152344 73.800781 L 299.148438 73.800781 L 299.089844 73.78125 L 298.816406 73.707031 C 294.695312 72.753906 290.488281 72.03125 286.203125 71.542969 C 281.953125 71.0625 277.667969 70.816406 273.355469 70.816406 C 264.996094 70.816406 256.851562 71.722656 249.011719 73.449219 C 245.832031 66.957031 241.585938 61.085938 236.511719 56.058594 C 224.914062 44.589844 208.976562 37.5 191.390625 37.5 C 173.808594 37.5 157.871094 44.582031 146.28125 56.058594 C 141.199219 61.085938 136.957031 66.964844 133.777344 73.453125 C 125.933594 71.730469 117.789062 70.820312 109.429688 70.820312 C 105.117188 70.820312 100.824219 71.066406 96.582031 71.546875 C 92.300781 72.035156 88.09375 72.757812 83.96875 73.710938 L 83.691406 73.785156 L 83.636719 73.804688 L 83.632812 73.804688 C 83.15625 73.964844 82.738281 74.226562 82.398438 74.5625 L 82.355469 74.605469 C 82.09375 74.878906 81.875 75.195312 81.714844 75.550781 L 81.714844 75.554688 L 81.6875 75.613281 L 81.679688 75.632812 L 81.660156 75.6875 L 81.648438 75.710938 L 81.628906 75.757812 L 81.625 75.769531 L 81.605469 75.824219 C 81.5625 75.945312 81.53125 76.066406 81.503906 76.191406 C 80.554688 80.308594 79.832031 84.511719 79.34375 88.785156 C 78.863281 93.035156 78.617188 97.320312 78.617188 101.636719 C 78.617188 109.992188 79.53125 118.136719 81.25 125.980469 C 74.761719 129.160156 68.882812 133.402344 63.855469 138.488281 C 52.375 150.085938 45.292969 166.023438 45.292969 183.601562 C 45.292969 201.1875 52.378906 217.128906 63.855469 228.722656 C 68.882812 233.804688 74.753906 238.042969 81.246094 241.222656 C 79.519531 249.066406 78.609375 257.210938 78.609375 265.566406 C 78.609375 269.878906 78.859375 274.171875 79.339844 278.421875 C 79.828125 282.699219 80.550781 286.910156 81.503906 291.03125 L 81.578125 291.308594 L 81.589844 291.359375 L 81.589844 291.363281 C 81.75 291.839844 82.015625 292.261719 82.351562 292.601562 L 82.394531 292.644531 C 82.664062 292.90625 82.980469 293.125 83.335938 293.285156 L 83.339844 293.285156 L 83.398438 293.308594 L 83.417969 293.320312 L 83.46875 293.339844 L 83.492188 293.347656 L 83.542969 293.367188 L 83.550781 293.375 L 83.605469 293.394531 C 83.726562 293.4375 83.847656 293.464844 83.972656 293.496094 C 87.546875 294.316406 91.183594 294.972656 94.878906 295.449219 C 95.09375 295.507812 95.320312 295.546875 95.554688 295.554688 C 95.625 295.5625 95.695312 295.5625 95.765625 295.5625 L 96.566406 295.652344 C 100.816406 296.136719 105.105469 296.382812 109.417969 296.382812 C 117.773438 296.382812 125.917969 295.472656 133.761719 293.746094 C 136.941406 300.238281 141.183594 306.117188 146.265625 311.144531 C 157.863281 322.617188 173.792969 329.703125 191.375 329.703125 C 208.960938 329.703125 224.898438 322.613281 236.496094 311.140625 C 241.574219 306.113281 245.816406 300.238281 248.996094 293.746094 C 256.835938 295.472656 264.980469 296.382812 273.339844 296.382812 C 277.652344 296.382812 281.941406 296.136719 286.191406 295.652344 L 286.992188 295.5625 C 287.058594 295.5625 287.128906 295.5625 287.199219 295.554688 C 287.433594 295.546875 287.65625 295.507812 287.878906 295.449219 C 291.566406 294.972656 295.207031 294.316406 298.78125 293.496094 C 298.910156 293.46875 299.03125 293.4375 299.15625 293.394531 L 299.207031 293.375 Z M 213.238281 227.730469 C 215.519531 222.375 217.402344 216.796875 218.835938 211.050781 C 224.582031 209.609375 230.15625 207.734375 235.511719 205.453125 C 237.175781 206.617188 238.777344 207.792969 240.300781 208.984375 C 242.328125 210.566406 244.304688 212.214844 246.21875 213.933594 C 256.464844 223.113281 264.84375 233.972656 271.09375 245.929688 L 271.15625 246.050781 C 271.746094 247.183594 272.3125 248.320312 272.867188 249.472656 C 276.515625 257.09375 279.316406 265.121094 281.191406 273.410156 C 272.902344 271.527344 264.875 268.734375 257.257812 265.085938 C 256.113281 264.535156 254.976562 263.96875 253.847656 263.382812 L 253.710938 263.3125 C 241.757812 257.0625 230.894531 248.675781 221.71875 238.4375 C 220.003906 236.527344 218.355469 234.550781 216.769531 232.523438 C 215.578125 230.988281 214.402344 229.394531 213.238281 227.730469 Z M 109.917969 117.765625 C 106.261719 110.132812 103.460938 102.097656 101.585938 93.792969 C 109.886719 95.675781 117.929688 98.472656 125.558594 102.125 C 126.695312 102.671875 127.824219 103.234375 128.941406 103.816406 L 129.070312 103.882812 C 141.039062 110.128906 151.914062 118.519531 161.101562 128.773438 C 162.8125 130.679688 164.453125 132.648438 166.035156 134.675781 C 167.261719 136.246094 168.4375 137.832031 169.558594 139.441406 C 167.269531 144.8125 165.386719 150.394531 163.945312 156.15625 C 158.183594 157.597656 152.597656 159.484375 147.222656 161.773438 C 145.621094 160.648438 144.03125 159.472656 142.464844 158.25 C 140.441406 156.667969 138.472656 155.019531 136.5625 153.3125 C 126.308594 144.125 117.914062 133.246094 111.667969 121.277344 L 111.609375 121.164062 C 111.03125 120.039062 110.460938 118.90625 109.917969 117.765625 Z M 123.628906 183.601562 C 136.109375 173.277344 150.976562 165.742188 167.289062 161.960938 C 167.40625 161.9375 167.523438 161.90625 167.632812 161.867188 L 167.644531 161.859375 L 167.691406 161.839844 C 168.140625 161.679688 168.539062 161.429688 168.859375 161.105469 L 168.902344 161.0625 L 168.953125 161.015625 C 169.195312 160.757812 169.394531 160.460938 169.539062 160.125 L 169.546875 160.113281 L 169.558594 160.078125 L 169.566406 160.0625 L 169.585938 160.019531 L 169.59375 159.988281 L 169.613281 159.941406 L 169.625 159.914062 C 169.675781 159.773438 169.714844 159.628906 169.75 159.484375 C 172.9375 145.71875 178.808594 132.976562 186.769531 121.832031 C 185.53125 119.960938 184.191406 118.15625 182.75 116.429688 C 178.945312 121.558594 175.558594 127.023438 172.652344 132.769531 C 172.136719 132.082031 171.617188 131.394531 171.085938 130.71875 C 169.433594 128.597656 167.691406 126.523438 165.875 124.492188 C 156.609375 114.148438 145.710938 105.597656 133.738281 99.097656 C 134.015625 92.742188 135.316406 86.660156 137.480469 81 C 151.53125 84.832031 164.421875 91.46875 175.507812 100.273438 C 179.625 103.546875 183.496094 107.113281 187.085938 110.949219 C 188.570312 112.535156 190.003906 114.164062 191.386719 115.832031 C 197.496094 123.210938 202.625 131.429688 206.578125 140.289062 L 206.699219 140.554688 C 209.375 146.59375 211.503906 152.929688 213.027344 159.492188 C 213.050781 159.609375 213.085938 159.726562 213.125 159.84375 L 213.125 159.847656 L 213.144531 159.902344 L 213.144531 159.90625 L 213.167969 159.96875 L 213.171875 159.980469 L 213.195312 160.042969 L 213.195312 160.046875 C 213.355469 160.4375 213.589844 160.78125 213.871094 161.066406 L 213.910156 161.105469 C 214.199219 161.390625 214.542969 161.621094 214.933594 161.78125 L 214.9375 161.78125 L 215.003906 161.808594 L 215.011719 161.8125 L 215.074219 161.835938 L 215.078125 161.835938 L 215.125 161.855469 L 215.132812 161.859375 C 215.242188 161.898438 215.359375 161.929688 215.480469 161.957031 C 229.25 165.148438 242 171.015625 253.144531 178.980469 C 255.015625 177.738281 256.820312 176.398438 258.542969 174.957031 C 253.414062 171.152344 247.949219 167.769531 242.203125 164.859375 C 242.894531 164.34375 243.578125 163.824219 244.253906 163.292969 C 246.375 161.640625 248.449219 159.902344 250.484375 158.078125 C 260.824219 148.8125 269.378906 137.914062 275.878906 125.941406 C 282.230469 126.210938 288.316406 127.515625 293.980469 129.683594 C 290.148438 143.734375 283.511719 156.625 274.707031 167.710938 C 271.433594 171.828125 267.863281 175.699219 264.027344 179.289062 C 262.445312 180.773438 260.816406 182.207031 259.148438 183.589844 C 251.765625 189.699219 243.550781 194.828125 234.691406 198.78125 L 234.417969 198.902344 C 228.378906 201.578125 222.050781 203.707031 215.488281 205.230469 C 215.371094 205.253906 215.253906 205.289062 215.140625 205.328125 L 215.136719 205.328125 L 215.085938 205.347656 L 215.082031 205.347656 L 215.019531 205.371094 L 215.015625 205.375 L 214.945312 205.398438 L 214.941406 205.398438 C 214.554688 205.558594 214.207031 205.792969 213.917969 206.074219 L 213.878906 206.113281 C 213.589844 206.402344 213.363281 206.746094 213.203125 207.136719 L 213.203125 207.140625 L 213.175781 207.203125 L 213.171875 207.214844 L 213.148438 207.277344 L 213.148438 207.28125 L 213.128906 207.332031 L 213.128906 207.335938 C 213.089844 207.453125 213.054688 207.570312 213.03125 207.691406 C 211.507812 214.257812 209.378906 220.589844 206.707031 226.628906 L 206.585938 226.898438 C 203.671875 233.425781 200.121094 239.597656 196.007812 245.347656 C 197.25 247.21875 198.589844 249.023438 200.023438 250.746094 C 203.835938 245.609375 207.226562 240.140625 210.132812 234.386719 C 210.648438 235.074219 211.175781 235.757812 211.707031 236.449219 C 213.367188 238.574219 215.105469 240.65625 216.933594 242.691406 C 226.191406 253.023438 237.078125 261.570312 249.042969 268.066406 C 248.773438 274.425781 247.46875 280.519531 245.296875 286.183594 C 231.246094 282.351562 218.355469 275.714844 207.269531 266.910156 C 203.152344 263.636719 199.28125 260.070312 195.6875 256.230469 C 194.207031 254.648438 192.769531 253.019531 191.390625 251.351562 C 181.0625 238.871094 173.527344 224.003906 169.75 207.691406 C 169.726562 207.574219 169.691406 207.457031 169.652344 207.34375 L 169.652344 207.339844 L 169.632812 207.292969 L 169.632812 207.285156 L 169.609375 207.222656 L 169.605469 207.214844 L 169.578125 207.148438 L 169.578125 207.144531 C 169.417969 206.757812 169.183594 206.410156 168.902344 206.125 L 168.863281 206.085938 C 168.578125 205.804688 168.234375 205.570312 167.84375 205.410156 L 167.839844 205.410156 L 167.769531 205.386719 L 167.761719 205.378906 L 167.699219 205.355469 L 167.691406 205.355469 L 167.644531 205.335938 L 167.640625 205.335938 C 167.523438 205.296875 167.40625 205.265625 167.285156 205.238281 C 160.714844 203.71875 154.386719 201.589844 148.347656 198.910156 L 148.074219 198.789062 C 141.554688 195.875 135.375 192.320312 129.628906 188.210938 C 127.757812 189.453125 125.953125 190.792969 124.226562 192.234375 C 129.367188 196.046875 134.835938 199.433594 140.59375 202.339844 C 139.90625 202.855469 139.222656 203.378906 138.53125 203.917969 C 136.40625 205.574219 134.324219 207.316406 132.289062 209.144531 C 121.957031 218.40625 113.410156 229.285156 106.914062 241.253906 C 100.554688 240.980469 94.460938 239.675781 88.796875 237.503906 C 92.628906 223.453125 99.265625 210.5625 108.070312 199.476562 C 111.34375 195.359375 114.910156 191.488281 118.746094 187.898438 C 120.332031 186.417969 121.960938 184.984375 123.628906 183.601562 Z M 183.777344 75.472656 C 183.777344 79.679688 187.183594 83.085938 191.390625 83.085938 C 195.597656 83.085938 199.003906 79.679688 199.003906 75.472656 C 199.003906 71.265625 195.597656 67.859375 191.390625 67.859375 C 187.191406 67.859375 183.777344 71.265625 183.777344 75.472656 Z M 299.519531 175.984375 C 295.316406 175.984375 291.90625 179.394531 291.90625 183.597656 C 291.90625 187.804688 295.316406 191.210938 299.519531 191.210938 C 303.726562 191.210938 307.136719 187.804688 307.136719 183.597656 C 307.136719 179.394531 303.726562 175.984375 299.519531 175.984375 Z M 83.265625 191.21875 C 87.46875 191.21875 90.878906 187.808594 90.878906 183.601562 C 90.878906 179.398438 87.46875 175.988281 83.265625 175.988281 C 79.058594 175.988281 75.648438 179.398438 75.648438 183.601562 C 75.648438 187.808594 79.058594 191.21875 83.265625 191.21875 Z M 199.007812 291.730469 C 199.007812 287.523438 195.601562 284.117188 191.394531 284.117188 C 187.191406 284.117188 183.78125 287.523438 183.78125 291.730469 C 183.78125 295.933594 187.191406 299.34375 191.394531 299.34375 C 195.601562 299.34375 199.007812 295.933594 199.007812 291.730469 Z M 88.792969 129.695312 C 94.453125 127.523438 100.539062 126.222656 106.894531 125.949219 C 113.394531 137.925781 121.945312 148.820312 132.289062 158.085938 C 134.320312 159.90625 136.394531 161.648438 138.515625 163.304688 C 139.191406 163.835938 139.878906 164.355469 140.566406 164.871094 C 134.753906 167.8125 129.230469 171.238281 124.046875 175.101562 C 122.238281 176.445312 120.472656 177.851562 118.746094 179.300781 C 117.105469 180.6875 115.496094 182.121094 113.933594 183.597656 C 110.023438 187.292969 106.382812 191.261719 103.03125 195.476562 C 93.890625 206.984375 86.953125 220.316406 82.851562 234.835938 C 77.492188 232.046875 72.621094 228.445312 68.410156 224.1875 C 58.097656 213.773438 51.734375 199.433594 51.734375 183.597656 C 51.734375 167.769531 58.097656 153.433594 68.40625 143.015625 C 72.621094 138.757812 77.488281 135.152344 82.851562 132.363281 C 86.953125 146.878906 93.890625 160.210938 103.03125 171.722656 C 104.765625 173.898438 106.574219 176.015625 108.457031 178.054688 C 110.058594 176.625 111.695312 175.242188 113.375 173.902344 C 111.527344 171.910156 109.757812 169.847656 108.070312 167.71875 C 99.261719 156.632812 92.625 143.746094 88.792969 129.695312 Z M 88.792969 129.695312 " fill-opacity="1" fill-rule="evenodd"/></g></svg>